{"title":"Defloration - Choky White","uid":7315651,"size":226679994,"categoryP":"porn","categoryS":"movies","magnet":"?xt=urn:btih:771db0dc2ec42db47f922574fb448df3d0f5b79b&amp;dn=Defloration+-+Choky+White&amp;tr=udp%3A%2F%2Ftracker.openbittorrent.com%3A80&amp;tr=udp%3A%2F%2Fopen.demonii.com%3A1337&amp;tr=udp%3A%2F%2Ftracker.coppersurfer.tk%3A6969&amp;tr=udp%3A%2F%2Fexodus.desync.com%3A6969","seeders":0,"leechers":1,"uploader":"soulless123","files":2,"time":1338479273,"description":"Screen\n &lt;a href=&quot;\nhttp://bayimg.com/IaOKKaAdo&quot; rel=&quot;nofollow&quot; target=&quot;_NEW&quot;&gt;\nhttp://bayimg.com/IaOKKaAdo&lt;/a&gt;\n\n\n\nSeeding Time 24/7\n\nDon't Forget To Say Thanks If You Like My Post\n\n\n\n-=Media Info=-\n\n\nFormat : AVI\nFormat/Info : Audio Video Interleave\nFile size : 216 MiB\nDuration : 22mn 14s\nOverall bit rate : 1 359 Kbps\n\nVideo\nID : 0\nFormat : MPEG-4 Visual\nFormat settings, BVOP : 1\nFormat settings, QPel : No\nFormat settings, GMC : No warppoints\nFormat settings, Matrix : Default (H.263)\nMuxing mode : Packed bitstream\nCodec ID : DX50\nCodec ID/Hint : DivX 5\nDuration : 22mn 14s\nBit rate : 1 227 Kbps\nWidth : 712 pixels\nHeight : 400 pixels\nDisplay aspect ratio : 16:9\nFrame rate : 25.000 fps\nColor space : YUV\nChroma subsampling : 40\nBit depth : 8 bits\nScan type : Progressive\nCompression mode : Lossy\nBits/(Pixel*Frame) : 0.172\nStream size : 195 MiB (90%)\nWriting library : DivX 6.8.5 (UTC 2009-08-20)\n\nAudio\nID : 1\nFormat : MPEG Audio\nFormat version : Version 1\nFormat profile : Layer 3\nCodec ID : 55\nCodec ID/Hint : MP3\nDuration : 22mn 11s\nBit rate mode : Constant\nBit rate : 128 Kbps\nChannel(s) : 2 channels\nSampling rate : 44.1 KHz\nCompression mode : Lossy\nStream size : 20.3 MiB (9%)\nAlignment : Split accross interleaves\nInterleave, duration : 501 ms (12.53 video frames)\nInterleave, preload duration : 750 ms","torrent":{"xt":"urn:btih:771db0dc2ec42db47f922574fb448df3d0f5b79b","amp;dn":"Defloration+-+Choky+White","amp;tr":["udp%3A%2F%2Ftracker.openbittorrent.com%3A80","udp%3A%2F%2Fopen.demonii.com%3A1337","udp%3A%2F%2Ftracker.coppersurfer.tk%3A6969","udp%3A%2F%2Fexodus.desync.com%3A6969"],"infoHash":"771db0dc2ec42db47f922574fb448df3d0f5b79b","infoHashBuffer":{"type":"Buffer","data":[119,29,176,220,46,196,45,180,127,146,37,116,251,68,141,243,208,245,183,155]},"announce":[],"urlList":[]}}